<svg xmlns="http://www.w3.org/2000/svg" width="512" height="512" viewBox="0 0 15 15" shape-rendering="crispEdges">
  <title>Mixoto</title>
  <desc>Pixel-style mixer: three purple faders at different levels.</desc>
  <rect width="15" height="15" rx="3.4" fill="#000"/>
    <!-- shadow: glyph shifted half a pixel down-right, like the Jean icon -->
    <g transform="translate(0.5 0.5)" fill="#48307a">
      <path d="M3 3h1v9H3zM7 3h1v9H7zM11 3h1v9h-1z"/>
      <path d="M2 8h3v2H2zM6 4h3v2H6zM10 6h3v2h-3z"/>
    </g>
    <path d="M3 3h1v9H3zM7 3h1v9H7zM11 3h1v9h-1z" fill="#3a2766"/>
    <path d="M3 10h1v2H3zM7 6h1v6H7zM11 8h1v4h-1z" fill="#9d6bff"/>
    <path d="M2 8h3v2H2zM6 4h3v2H6zM10 6h3v2h-3z" fill="#9d6bff"/>
</svg>
